<svg width="10" height="10" viewBox="0 0 10 10" fill="none" xmlns="http://www.w3.org/2000/svg">
<path d="M3.94874 9.75422C4.38459 9.75422 4.71409 9.58685 4.93724 9.25213L9.76464 1.97702C9.84484 1.85847 9.90411 1.74167 9.94247 1.6266C9.98082 1.50805 10 1.39473 10 1.28664C10 0.986784 9.8954 0.739225 9.68619 0.543967C9.48047 0.345222 9.22594 0.24585 8.92259 0.24585C8.71339 0.24585 8.53556 0.287691 8.38912 0.371373C8.24616 0.451568 8.11018 0.591038 7.98117 0.789783L3.92782 7.15485L1.89854 4.72284C1.67887 4.4683 1.40342 4.34104 1.07218 4.34104C0.761855 4.34104 0.505579 4.44041 0.303347 4.63916C0.101116 4.8379 0 5.0872 0 5.38706C0 5.52305 0.0209205 5.65206 0.0627615 5.77409C0.108089 5.89264 0.190028 6.01642 0.308577 6.14543L3.00209 9.32012C3.24965 9.60952 3.5652 9.75422 3.94874 9.75422Z" fill="white"/>
</svg>
