<svg width="16" height="16" viewBox="0 0 16 16" fill="none" xmlns="http://www.w3.org/2000/svg">
<g clip-path="url(#clip0_562902_1566)">
<path d="M15.9961 15.9999V15.9992H16.0001V10.1312C16.0001 7.26053 15.3821 5.04919 12.0261 5.04919C10.4128 5.04919 9.33009 5.93453 8.88809 6.77386H8.84143V5.31719H5.65942V15.9992H8.97276V10.7099C8.97276 9.31719 9.23676 7.97053 10.9614 7.97053C12.6608 7.97053 12.6861 9.55986 12.6861 10.7992V15.9999H15.9961Z" fill="#F4F4FD"/>
<path d="M0.264038 5.31787H3.58137V15.9999H0.264038V5.31787Z" fill="#F4F4FD"/>
<path d="M1.92139 -0.00012207C0.860728 -0.00012207 6.10352e-05 0.860545 6.10352e-05 1.92121C6.10352e-05 2.98188 0.860728 3.86055 1.92139 3.86055C2.98206 3.86055 3.84273 2.98188 3.84273 1.92121C3.84206 0.860545 2.98139 -0.00012207 1.92139 -0.00012207V-0.00012207Z" fill="#F4F4FD"/>
</g>
<defs>
<clipPath id="clip0_562902_1566">
<rect width="16" height="16" fill="white"/>
</clipPath>
</defs>
</svg>
